<svg width="83" height="104" viewBox="0 0 83 104" fill="none" xmlns="http://www.w3.org/2000/svg">
<path d="M45.337 0.301939C39.0632 -1.2665 33.2357 3.47819 32.8157 9.62069C32.3432 16.5179 31.3064 22.8507 30.007 26.6176C29.1867 28.9801 26.8636 33.2654 23.182 37.3735C19.5267 41.4619 14.7689 45.1041 9.19731 46.6266C4.78731 47.8276 0.291992 51.6469 0.291992 57.2251V83.4816C0.291992 89.0269 4.76762 93.0891 9.79449 93.6207C16.8164 94.3688 20.0582 96.3441 23.3657 98.3654L23.6807 98.5622C25.4657 99.6451 27.4739 100.846 30.0464 101.738C32.6517 102.631 35.6967 103.163 39.667 103.163H62.6357C68.7848 103.163 73.1292 100.032 75.3276 96.1801C76.3902 94.3622 76.9644 92.3004 76.9945 90.1951C76.9945 89.1976 76.8436 88.1476 76.4892 87.1501C77.8082 85.4241 78.9829 83.3569 79.6917 81.2372C80.4136 79.0716 80.8204 76.2366 79.7179 73.6969C80.1707 72.8438 80.5054 71.9316 80.7614 71.0522C81.2667 69.2804 81.5029 67.3247 81.5029 65.4282C81.5029 63.5382 81.2667 61.5891 80.7614 59.8107C80.5318 58.9931 80.2287 58.198 79.8557 57.4351C81.0048 55.8002 81.7442 53.913 82.0114 51.9327C82.2787 49.9523 82.066 47.9367 81.3914 46.0557C80.0395 42.1707 76.9157 38.8369 73.5164 37.7082C67.9579 35.8576 61.6842 35.8969 57.0051 36.3235C56.0337 36.4109 55.0644 36.5203 54.0979 36.6516C56.3745 26.9023 56.2348 16.7444 53.6911 7.06131C53.2485 5.50987 52.3995 4.10481 51.2319 2.99145C50.0643 1.87808 48.6205 1.09684 47.0498 0.728502L45.337 0.301939ZM62.6357 96.6066H39.667C36.3201 96.6066 34.0036 96.1538 32.1857 95.5304C30.3417 94.8938 28.8651 94.0341 27.0932 92.9513L26.8307 92.7938C23.1886 90.5691 18.9689 87.9966 10.4901 87.0976C8.3048 86.8613 6.85449 85.1944 6.85449 83.4882V57.2251C6.85449 55.5582 8.33762 53.6616 10.9232 52.9594C18.1092 50.9907 23.8973 46.4232 28.0776 41.7507C32.2448 37.0913 35.0601 32.071 36.202 28.7701C37.7967 24.1763 38.8729 17.1676 39.3651 10.0669C39.5292 7.69131 41.7276 6.16881 43.7423 6.66756L45.4617 7.10069C46.5117 7.36319 47.1548 8.03913 47.3517 8.77413C50.0317 18.9855 49.7012 29.7541 46.4001 39.7819C46.2133 40.3397 46.1798 40.9374 46.3031 41.5125C46.4265 42.0876 46.7022 42.619 47.1013 43.051C47.5005 43.483 48.0084 43.7998 48.572 43.9682C49.1356 44.1366 49.7341 44.1504 50.3048 44.0082L50.3245 44.0016L50.4164 43.9819L50.797 43.8901C53.0411 43.4135 55.3112 43.0695 57.5957 42.8598C61.9467 42.466 67.1573 42.5054 71.4426 43.936C72.5911 44.3166 74.3957 45.9047 75.1832 48.2016C75.8854 50.2229 75.7542 52.5985 73.4376 54.9085L71.1211 57.2251L73.4376 59.5482C73.7198 59.8304 74.1267 60.4735 74.4482 61.6154C74.7632 62.7113 74.9404 64.0435 74.9404 65.4282C74.9404 66.8194 74.7632 68.1451 74.4482 69.2476C74.1201 70.3894 73.7198 71.0326 73.4376 71.3147L71.1211 73.6313L73.4376 75.9544C73.7461 76.2629 74.1529 77.116 73.4704 79.1569C72.7593 81.1361 71.6288 82.9381 70.1564 84.4397L67.8398 86.7563L70.1564 89.0794C70.1957 89.1122 70.4254 89.4076 70.4254 90.1951C70.3963 91.1576 70.1231 92.097 69.6314 92.9251C68.5486 94.8151 66.3304 96.6001 62.6357 96.6001V96.6066Z" fill="#21272A"/>
</svg>
